# xmcd
#
# Track frame offsets: 
#        150
#        15959
#        32051
#        47750
#        64180
#        82596
#        95477
#        111461
#        126533
#        141093
#
# Disc length: 2077 seconds
#
# Revision: 0
# Processed by: cddbd v1.5.2PL0 Copyright (c) Steve Scherf et al.
# Submitted via: ExactAudioCopy v1.0b3
#
DISCID=80081b0a
DTITLE=JT Hodges - JT Hodges
DYEAR=2012
DGENRE=Country
TTITLE0=Rather Be Wrong Than Lonely
TTITLE1=Sleepy Little Town
TTITLE2=Hunt You Down
TTITLE3=Give It One More Night
TTITLE4=When I Stop Crying
TTITLE5=Goodbyes Made You Mine
TTITLE6=Leaving Me Later
TTITLE7=Right About Now
TTITLE8=Rhythm Of The Radio
TTITLE9=Green Eyes Red Sunglasses
EXTD=
EXTT0=
EXTT1=
EXTT2=
EXTT3=
EXTT4=
EXTT5=
EXTT6=
EXTT7=
EXTT8=
EXTT9=
PLAYORDER=
